<?xml version="1.0" encoding="UTF-8" standalone="no"?>
<svg
   xmlns:dc="http://purl.org/dc/elements/1.1/"
   xmlns:cc="http://creativecommons.org/ns#"
   xmlns:rdf="http://www.w3.org/1999/02/22-rdf-syntax-ns#"
   xmlns:svg="http://www.w3.org/2000/svg"
   xmlns="http://www.w3.org/2000/svg"
   xmlns:sodipodi="http://sodipodi.sourceforge.net/DTD/sodipodi-0.dtd"
   xmlns:inkscape="http://www.inkscape.org/namespaces/inkscape"
   width="210mm"
   height="297mm"
   viewBox="0 0 210 297"
   version="1.1"
   id="svg8"
   inkscape:version="1.0.2 (e86c870, 2021-01-15)"
   sodipodi:docname="Violão Vetor.svg">
  <defs
     id="defs2" />
  <sodipodi:namedview
     id="base"
     pagecolor="#ffffff"
     bordercolor="#666666"
     borderopacity="1.0"
     inkscape:pageopacity="0.0"
     inkscape:pageshadow="2"
     inkscape:zoom="0.49497475"
     inkscape:cx="396.4138"
     inkscape:cy="721.24317"
     inkscape:document-units="mm"
     inkscape:current-layer="layer1"
     inkscape:document-rotation="0"
     showgrid="false"
     inkscape:window-width="1366"
     inkscape:window-height="716"
     inkscape:window-x="-8"
     inkscape:window-y="-8"
     inkscape:window-maximized="1" />
  <metadata
     id="metadata5">
    <rdf:RDF>
      <cc:Work
         rdf:about="">
        <dc:format>image/svg+xml</dc:format>
        <dc:type
           rdf:resource="http://purl.org/dc/dcmitype/StillImage" />
        <dc:title></dc:title>
      </cc:Work>
    </rdf:RDF>
  </metadata>
  <g
     inkscape:label="Layer 1"
     inkscape:groupmode="layer"
     id="layer1">
    <path
       style="fill:#000000;stroke:none;stroke-width:0.264583px;stroke-linecap:butt;stroke-linejoin:miter;stroke-opacity:1"
       d="m 88.198943,205.26299 c -10.39945,8.44014 -22.428255,12.03508 -39.555889,0.46772 -13.792428,-12.65328 -14.154982,-24.61902 -10.824416,-36.08138 5.454943,-10.79914 14.100854,-15.86008 26.326048,-15.96935 6.260774,-1.72395 10.31901,-5.6924 13.029389,-12.02713 5.319782,-11.21158 14.153965,-12.9558 28.196935,-0.66818 l 51.85029,-38.55363 -50.17986,40.89224 c -16.256158,-15.23275 -23.03099,-7.74042 -28.196931,3.60814 -3.058631,5.55301 -8.36212,7.67272 -14.432555,8.61944 -10.90391,1.0149 -18.183912,6.80275 -21.782465,17.43934 -2.860643,14.03721 1.911616,22.05617 8.218538,28.86511 11.455433,9.92393 23.759417,12.35233 37.350916,3.40768 z"
       id="path24"
       sodipodi:nodetypes="ccccccccccccc" />
    <path
       style="fill:#000000;stroke:none;stroke-width:0.264583px;stroke-linecap:butt;stroke-linejoin:miter;stroke-opacity:1"
       d="m 178.53604,89.468472 -5.29409,-5.580927 c -1.75298,2.376215 -3.63561,4.732482 -6.1985,6.984094 -3.34135,3.018379 -8.79224,5.814116 -9.58998,9.488071 -0.38986,3.10656 2.4249,4.24103 4.31141,5.94674 -1.19605,-1.93396 -3.64147,-3.82331 -3.27405,-5.81311 1.59539,-4.016095 5.73282,-5.822922 8.90222,-8.48986 l 6.06487,-6.27678 z"
       id="path26"
       sodipodi:nodetypes="ccccccccc" />
    <path
       style="fill:#000000;stroke:none;stroke-width:0.264583px;stroke-linecap:butt;stroke-linejoin:miter;stroke-opacity:1"
       d="m 160.3564,100.63616 c 0.18259,0.51427 -0.18436,0.69292 0.89769,1.48828 0.46629,-0.0124 0.76212,-0.0822 1.03944,-0.47247 l 5.62239,-5.45703 7.2288,-7.016184 c 0.31436,-0.259859 0.26805,-0.519717 0.21261,-0.779576 l -0.59059,-0.921317 0.0709,1.133931 -6.18936,5.976746 -6.7327,6.61458 c -0.19522,0.18768 -0.40374,0.32218 -0.66146,0.25986 -0.53198,0.0968 -0.65856,-0.45506 -0.8977,-0.82682 z"
       id="path28"
       sodipodi:nodetypes="cccccccccccc" />
    <path
       style="fill:#000000;stroke:none;stroke-width:0.264583px;stroke-linecap:butt;stroke-linejoin:miter;stroke-opacity:1"
       d="m 162.24628,102.7859 c 0.18259,0.51427 -0.18436,0.69292 0.89769,1.48828 0.46629,-0.0124 0.76212,-0.0822 1.03944,-0.47247 l 5.62239,-5.45703 7.2288,-7.016184 c 0.31436,-0.259859 0.26805,-0.519717 0.21261,-0.779576 l -0.59059,-0.921317 0.0709,1.133931 -6.18936,5.976746 -6.7327,6.61458 c -0.19522,0.18768 -0.40374,0.32218 -0.66146,0.25986 -0.53198,0.0968 -0.65856,-0.45506 -0.8977,-0.82682 z"
       id="path30"
       sodipodi:nodetypes="cccccccccccc" />
    <path
       style="fill:#000000;stroke:none;stroke-width:0.264583px;stroke-linecap:butt;stroke-linejoin:miter;stroke-opacity:1"
       d="m 160.40364,94.021575 c -0.70773,-0.516896 -0.89617,-0.435898 -1.55915,-0.04725 -0.52015,0.290162 -0.71498,0.637994 -0.89769,1.13393 -0.0275,0.412933 0.24021,0.559405 0.54335,0.708705 1.04858,0.312972 1.70304,-0.304636 2.05528,-1.086683 0.0452,0.570397 -0.0492,0.857816 -0.42518,1.252045 -0.45535,0.346965 -0.82651,0.382854 -1.37016,0.401606 -0.61488,-0.07906 -0.92047,-0.235431 -1.22843,-0.755954 -0.23811,-0.552233 -0.15589,-0.930726 0.23628,-1.441035 0.27251,-0.358978 0.41985,-0.542977 0.87408,-0.826822 0.33715,-0.166371 0.65158,-0.165365 1.0158,-0.165365 0.51372,0.111112 0.59292,0.265373 0.75582,0.826827 z"
       id="path32"
       sodipodi:nodetypes="cccccccccccc" />
    <path
       style="fill:#000000;stroke:none;stroke-width:0.264583px;stroke-linecap:butt;stroke-linejoin:miter;stroke-opacity:1"
       d="m 164.89211,89.296873 c -0.70773,-0.516896 -0.89617,-0.435898 -1.55915,-0.04725 -0.52015,0.290162 -0.71498,0.637994 -0.89769,1.13393 -0.0275,0.412933 0.24021,0.559405 0.54335,0.708705 1.04858,0.312972 1.70304,-0.304636 2.05528,-1.086683 0.0452,0.570397 -0.0492,0.857816 -0.42518,1.252045 -0.45535,0.346965 -0.82651,0.382854 -1.37016,0.401606 -0.61488,-0.07906 -0.92047,-0.235431 -1.22843,-0.755954 -0.23811,-0.552233 -0.15589,-0.930726 0.23628,-1.441035 0.27251,-0.358978 0.41985,-0.542977 0.87408,-0.826822 0.33715,-0.166371 0.65158,-0.165365 1.0158,-0.165365 0.51372,0.111112 0.59292,0.265373 0.75582,0.826827 z"
       id="path34"
       sodipodi:nodetypes="cccccccccccc" />
    <path
       style="fill:#000000;stroke:none;stroke-width:0.264583px;stroke-linecap:butt;stroke-linejoin:miter;stroke-opacity:1"
       d="m 169.75855,85.186382 c -0.70773,-0.516896 -0.89617,-0.435898 -1.55915,-0.04725 -0.52015,0.290162 -0.71498,0.637994 -0.89769,1.13393 -0.0275,0.412933 0.24021,0.559405 0.54335,0.708705 1.04858,0.312972 1.70304,-0.304636 2.05528,-1.086683 0.0452,0.570397 -0.0492,0.857816 -0.42518,1.252045 -0.45535,0.346965 -0.82651,0.382854 -1.37016,0.401606 -0.61488,-0.07906 -0.92047,-0.235431 -1.22843,-0.755954 -0.23811,-0.552233 -0.15589,-0.930726 0.23628,-1.441035 0.27251,-0.358978 0.41985,-0.542977 0.87408,-0.826822 0.33715,-0.166371 0.65158,-0.165365 1.0158,-0.165365 0.51372,0.111112 0.59292,0.265373 0.75582,0.826827 z"
       id="path36"
       sodipodi:nodetypes="cccccccccccc" />
    <path
       style="fill:#000000;stroke:#000000;stroke-width:0.264583px;stroke-linecap:butt;stroke-linejoin:miter;stroke-opacity:1"
       d="M 89.391367,160.63988 124.35417,132.66964"
       id="path38" />
    <path
       style="fill:none;stroke:#000000;stroke-width:0.264583px;stroke-linecap:butt;stroke-linejoin:miter;stroke-opacity:1"
       d="M 98.462797,155.72619 132.66964,127.75595"
       id="path40" />
    <path
       style="fill:#000000;stroke:none;stroke-width:0.264583px;stroke-linecap:butt;stroke-linejoin:miter;stroke-opacity:1"
       d="m 70.325294,174.25973 -0.53454,-0.70158 -2.138156,2.13815 10.122833,10.62397 0.668174,-0.50113 -9.621703,-10.12284 z"
       id="path42" />
    <path
       style="fill:#000000;stroke:none;stroke-width:0.264583px;stroke-linecap:butt;stroke-linejoin:miter;stroke-opacity:1"
       d="m 86.273065,156.00967 c -4.503778,3.08598 -6.285601,9.96556 -2.551339,14.74107 4.146727,5.303 10.621037,5.3319 14.457589,2.31511 6.238175,-4.90526 5.305165,-10.74045 2.598585,-15.30804 3.69062,9.06252 -0.43207,12.29956 -3.16555,14.22135 -4.664204,3.27919 -9.48512,1.08105 -12.567709,-2.36235 -4.252514,-6.03703 -1.831338,-9.92491 1.228424,-13.60714 z"
       id="path44"
       sodipodi:nodetypes="csscscc" />
  </g>
</svg>
